<mxfile host="app.diagrams.net" modified="2024-07-17T09:56:03.342Z" agent="Mozilla/5.0 (Windows NT 10.0; Win64; x64) AppleWebKit/537.36 (KHTML, like Gecko) Chrome/126.0.0.0 Safari/537.36" version="24.7.0" etag="u5RvZ8oVe24U-LSWHccr" type="github">
  <diagram name="Page-1" id="GrOJzhbC3DftjQYw_lUB">
    <mxGraphModel>
      <root>
        <mxCell id="0" />
        <mxCell id="1" parent="0" />
      </root>
    </mxGraphModel>
  </diagram>
</mxfile>
